<svg xmlns="http://www.w3.org/2000/svg" viewBox="0 0 360 240" role="img" aria-labelledby="t">
  <title id="t">Conference presentation and research communication</title>
  <g fill="none" stroke-linecap="round" stroke-linejoin="round">
    <rect x="26" y="30" width="308" height="180" rx="26" fill="#0d2730" stroke="#2d5964" stroke-width="2"/>
    <rect x="69" y="54" width="135" height="93" rx="8" stroke="#45c5d1" stroke-width="3"/>
    <path d="M86 77h99M86 94h57M86 116l24-17 24 11 35-30" stroke="#8faab1" stroke-width="3"/>
    <circle cx="237" cy="80" r="13" stroke="#e1bd66" stroke-width="3"/>
    <path d="M237 94v38M222 112h30M225 154l12-22 12 22" stroke="#e1bd66" stroke-width="4"/>
    <path d="M208 158h58M232 132h35v26" stroke="#738f97" stroke-width="3"/>
    <circle cx="97" cy="176" r="9" fill="#45c5d1" stroke="none"/>
    <circle cx="133" cy="176" r="9" fill="#7cb9c1" stroke="none"/>
    <circle cx="169" cy="176" r="9" fill="#e1bd66" stroke="none"/>
    <path d="M83 194c5-14 23-14 28 0M119 194c5-14 23-14 28 0M155 194c5-14 23-14 28 0" stroke="#6f8b93" stroke-width="3"/>
  </g>
</svg>
